<svg xmlns="http://www.w3.org/2000/svg" viewBox="0 0 128 128"><g><path fill="#181616" d="M64 12.2c-13.2.1-24.1 1.2-24.1 1.2s-10.9 1.1-10.9 12.2v11.3h22v3.8H28.9s-10.9.1-10.9 12.2v11.3c0 11.1 10.9 12.2 10.9 12.2s10.9 1.2 24.1 1.2c13.2 0 24.1-1.2 24.1-1.2s10.9-1.1 10.9-12.2V52.9h-22v-3.8h22s10.9-.1 10.9-12.2V25.6c0-11.1-10.9-12.2-10.9-12.2s-10.9-1.1-24.1-1.2z"/><circle fill="#fff" cx="44.2" cy="24.6" r="5.4"/><path fill="#fff" d="M64.1 115.8c13.2-.1 24.1-1.2 24.1-1.2s10.9-1.1 10.9-12.2v-11.3h-22v-3.8h22s10.9-.1 10.9-12.2v-11.3c0-11.1-10.9-12.2-10.9-12.2s-10.9-1.2-24.1-1.2c-13.2 0-24.1 1.2-24.1 1.2s-10.9 1.1-10.9 12.2v11.3h22v3.8h-22s-10.9.1-10.9 12.2v11.3c0 11.1 10.9 12.2 10.9 12.2s10.9 1.1 24.1 1.2z"/><circle fill="#181616" cx="83.8" cy="103.4" r="5.4"/></g></svg>