<svg xmlns="http://www.w3.org/2000/svg" viewBox="0 0 128 128"><path fill="#F7DF1E" d="M1.408 1.408h125.184v125.185H1.408z"/><path fill="#000" d="M116.042 104.59c-1.85-3.682-3.785-6.773-7.57-9.64-2.963-2.16-6.08-3.07-10.08-3.07-6.41 0-10.47 3.18-10.47 7.59 0 3.77 2.98 6.07 9.47 8.24 7.98 2.59 12.23 6.38 12.23 12.79 0 7.34-5.81 11.44-14.57 11.44-6.47 0-11.13-2.02-14.44-6.38l6.36-7.74c2.02 2.86 4.13 4.01 8.08 4.01 3.36 0 5.51-1.34 5.51-3.56 0-2.48-1.98-3.56-7.01-5.36-8.47-2.81-13.13-6.13-13.13-13.09 0-7.22 6.02-12.13 15.36-12.13 6.67 0 11.37 2.09 14.77 6.38zm-49.04.81c.01 8.13-2.98 13.23-11.97 13.23-6.42 0-10.13-3.19-12.04-7.09l7.36-7.13c1.02 1.81 1.95 3.16 4.09 3.16 2.09 0 3.41-.81 3.41-4.01V81.5h8.15zm-8.15-23.9c0 5.13-3.02 7.19-8.15 7.19-5.13 0-8.15-2.06-8.15-7.19V56.5h16.3zm-8.15-23.9c0 5.13-3.02 7.19-8.15 7.19-5.13 0-8.15-2.06-8.15-7.19V32.5h16.3z"/></svg>